<svg viewBox="0 0 1164 400" xmlns="http://www.w3.org/2000/svg" fill-rule="evenodd" clip-rule="evenodd" stroke-linejoin="round" stroke-miterlimit="2">
  <path fill="none" d="M.658 0h1163v400H.658z"/>
  <g fill="#273240">
    <path d="M410.808 338.269a6.55 6.55 0 01-6.551-6.55V159.88a6.55 6.55 0 016.551-6.55h41.928a6.55 6.55 0 016.551 6.55v171.839a6.55 6.55 0 01-6.551 6.55h-41.928z" fill-rule="nonzero"/>
    <ellipse cx="431.598" cy="87.156" rx="32.391" ry="31.346"/>
    <path d="M696.469 147.409c14.628 0 26.353 4.934 35.177 14.802 8.823 9.868 13.234 23.509 13.234 40.923v128.585c0 1.737-.69 3.403-1.918 4.632a6.554 6.554 0 01-4.632 1.918h-41.928a6.55 6.55 0 01-6.551-6.55V212.538c0-16.485-5.224-24.728-15.672-24.728-5.805 0-10.913 1.974-15.325 5.921-2.287 2.046-4.543 4.654-6.768 7.824a30.2 30.2 0 00-5.898 17.929c-.221 22.92-.221 90.816-.221 112.235 0 1.737-.69 3.403-1.918 4.632a6.554 6.554 0 01-4.632 1.918h-41.928a6.55 6.55 0 01-6.551-6.55V212.538c0-16.485-5.224-24.728-15.672-24.728-5.573 0-10.623 2.032-15.151 6.095-2.67 2.396-5.279 5.458-7.828 9.187a27.58 27.58 0 00-5.06 15.921c-.173 22.446-.173 91.138-.173 112.706 0 1.737-.69 3.403-1.918 4.632a6.554 6.554 0 01-4.632 1.918h-41.928a6.55 6.55 0 01-6.551-6.55V159.88a6.55 6.55 0 016.551-6.55h36.022a6.55 6.55 0 016.45 5.406l1.482 8.355a3.741 3.741 0 006.438 1.87c5.811-6.348 12.085-11.264 18.809-14.761 8.708-4.527 18.634-6.791 29.779-6.791 10.216 0 19.097 2.554 26.644 7.662 4.629 3.134 9.936 10.55 13.347 15.815a5.426 5.426 0 008.265.782c5.347-5.413 14.008-13.767 19.834-16.945 8.939-4.876 19.213-7.314 30.823-7.314zM879.667 147.409c22.522 0 39.762 8.591 51.72 25.773 11.958 17.182 17.937 41.446 17.937 72.792 0 19.039-2.961 35.989-8.881 50.849-5.921 14.86-14.396 26.47-25.425 34.829-11.029 8.359-24.09 12.538-39.182 12.538-10.217 0-19.446-2.032-27.689-6.095a55.143 55.143 0 01-12.659-8.58 5.996 5.996 0 00-9.952 3.515c-.075-.008-.076-.004-.076 0a6.201 6.201 0 01-6.126 5.239h-36.906a6.55 6.55 0 01-6.55-6.55V85.725a6.55 6.55 0 015.849-6.513l41.929-4.511a6.552 6.552 0 017.251 6.513v79.057a4.556 4.556 0 007.664 3.33c3.916-3.649 8.454-6.77 13.581-9.401 8.824-4.527 17.995-6.791 27.515-6.791zm-19.504 156.728c21.361 0 32.042-19.388 32.042-58.163 0-21.826-2.554-36.977-7.662-45.452-5.108-8.475-12.422-12.712-21.942-12.712-7.693 0-14.643 2.71-20.849 8.128a31.734 31.734 0 00-10.759 23.814c-.086 14.5-.086 40.738-.086 55.477.002 15.709 12.536 28.549 28.241 28.928.337-.024.675-.02 1.015-.02zM1120.33 284.633c0 6.966.987 12.074 2.96 15.325 1.242 2.045 2.966 3.768 5.172 5.17a6.41 6.41 0 012.6 7.323c-.726 2.723-1.834 6.183-2.995 9.808a23.886 23.886 0 01-34.373 13.58c-.002-.004-.005-.006-.008-.008-7.082-3.947-12.712-10.332-16.892-19.155-12.074 18.343-30.649 27.514-55.725 27.514-18.343 0-32.971-5.34-43.884-16.021-10.913-10.681-16.37-24.612-16.37-41.794 0-20.201 7.43-35.641 22.291-46.322 14.86-10.681 36.337-16.021 64.432-16.021h11.861a6.945 6.945 0 006.947-6.947v-1.064c0-10.913-2.322-18.401-6.966-22.464-4.644-4.064-12.77-6.095-24.38-6.095-6.037 0-13.351.87-21.942 2.612-6.675 1.353-13.491 3.092-20.447 5.216a6.546 6.546 0 01-8.11-4.117 53160.72 53160.72 0 01-8.341-24.086 6.55 6.55 0 014.026-8.327 212.75 212.75 0 0129.563-7.868c12.19-2.322 23.51-3.483 33.958-3.483 26.47 0 45.858 5.456 58.164 16.369 12.306 10.913 18.459 27.283 18.459 49.108v71.747zm-83.24 20.201c6.037 0 11.551-1.509 16.543-4.528h.001a26.342 26.342 0 0012.712-22.54v-15.98a7.453 7.453 0 00-7.453-7.453h-6.13c-12.539 0-21.884 2.205-28.037 6.617-6.153 4.412-9.23 11.261-9.23 20.549 0 7.43 1.916 13.177 5.747 17.24 3.831 4.063 9.113 6.095 15.847 6.095z" fill-rule="nonzero"/>
  </g>
  <path d="M360.039 167.628C323.834 99.341.596 29.568 35.591 74.7c34.995 45.132 190.036 107.062 199.223 108.212-47.568 14.937-174.53 41.73-147.353 64.299 27.177 22.569 156.265-2.637 156.052-2.236-35.746 26.937-80.254 108.258-35.536 90.883 70.555-27.413 173.158-128.44 152.062-168.23z" fill="#16cec6"/>
</svg>