<svg width="15" height="12" viewBox="0 0 15 12" fill="none" xmlns="http://www.w3.org/2000/svg">
<path d="M14.5838 6.1626C14.5152 6.29413 14.4408 6.41851 14.3751 6.55004C14.332 6.6453 14.2598 6.72437 14.1688 6.77579C14.0778 6.8272 13.9727 6.84828 13.8689 6.83598C13.789 6.83325 13.7106 6.85853 13.6473 6.90746C13.4515 7.03613 13.2528 7.16338 13.0497 7.28347C12.9118 7.35923 12.7585 7.40294 12.6014 7.41135C12.4442 7.41977 12.2871 7.39267 12.1419 7.33208C11.6571 7.14458 11.1419 7.04766 10.6221 7.04614C10.3645 7.03768 10.1083 7.08889 9.8737 7.19578C9.63908 7.30267 9.43235 7.46235 9.26965 7.66234C9.1356 7.84894 9.03276 8.05609 8.96513 8.27567C8.78785 8.71458 8.6363 11.3323 8.6363 12C8.6363 12 6.1172 11.511 3.75393 9.09202L4.37012 7.47362H2.44005L3.83542 5.99389H1.43355L2.83035 4.5156H0.550003L3.08912 1.8235C3.86765 1.05282 4.84701 0.51632 5.91561 0.275155C6.93069 0.100734 7.19232 0.199382 7.81852 0.385241L8.16593 0.489608L8.28746 0.52535L8.73066 0.66117C9.02086 0.739715 9.32614 0.744139 9.61849 0.674037C10.0156 0.571157 10.4369 0.622227 10.798 0.817006C10.9587 0.90878 11.0955 1.03712 11.1973 1.19161C11.2991 1.34611 11.3632 1.52242 11.3842 1.70627C11.4027 1.86837 11.4591 2.02384 11.5488 2.16016C11.6384 2.29649 11.7588 2.40987 11.9003 2.49117C12.3268 2.72479 12.7726 2.92138 13.2327 3.07877C13.5573 3.20172 13.8818 3.34183 14.2035 3.46764C14.3633 3.52823 14.5043 3.6298 14.6124 3.76216C14.7043 3.87263 14.7593 4.00912 14.7696 4.15246C14.7897 4.4384 14.8225 4.72434 14.8368 5.01027C14.8593 5.40891 14.7717 5.80604 14.5838 6.15831V6.1626Z" fill="currentColor"/>
</svg>
