<svg xmlns="http://www.w3.org/2000/svg" width="128" height="128" viewBox="0 0 128 128">
  <path fill="#709CB2" fill-rule="evenodd" d="M41.4084699,76.9669057 C42.1484497,78.6201084 42.3573565,80.2094918 42.0351966,81.7351036 C41.7130367,83.2607154 40.9252575,84.4126245 39.6718353,85.1908655 C38.4184132,85.9691066 36.9865381,86.1859508 35.3761672,85.8414045 C34.3341625,85.6184629 33.210488,85.0790759 32.0051102,84.2232276 C29.9993475,82.0002287 27.7597729,79.4780886 25.286319,76.6567315 C22.8128651,73.8353745 20.3021526,70.9562515 17.754106,68.0192762 C15.2060594,65.082301 12.7003805,62.1793407 10.2369941,59.3103083 C7.77360775,56.4412758 5.49170363,53.8851648 3.39121329,51.6418985 C2.19772997,49.792008 1.77214216,48.0566075 2.11443706,46.435645 C2.51713695,44.5286302 3.76939374,43.0525551 5.87124499,42.0073751 L9.61193106,40.1169403 C11.5515558,39.1367099 13.8967117,37.9941227 16.6474691,36.6891443 C19.3982265,35.3841659 22.2975526,33.9615171 25.3455343,32.4211551 C28.3935159,30.8807931 31.292842,29.4581442 34.0435994,28.1531659 C36.7943569,26.8481875 39.168228,25.6868297 41.1652841,24.6690577 C43.1623401,23.6512857 44.3805077,23.0399176 44.8198235,22.8349351 C46.1519586,22.6216579 56.0148687,20.1951224 57,24.7539234 L51.6159623,45.1292082 L17.4904503,49.5759259 C19.0829794,51.4115354 20.938042,53.5275215 23.0556937,55.9239476 C25.1733454,58.3203737 27.3045796,60.7695053 29.4494601,63.2714158 C31.5943407,65.7733264 33.7255748,68.2224579 35.8432265,70.618884 C37.9608782,73.0153101 39.8159408,75.1312962 41.4084699,76.9669057 Z M76.3053906,92.0169959 C78.6132471,91.2792905 81.2901693,90.4387688 84.3362374,89.4954056 C87.3823055,88.5520424 90.4670437,87.5710589 93.5905445,86.5524258 C96.7140453,85.5337926 99.7987835,84.5528091 102.844852,83.6094459 C105.89092,82.6660827 108.567842,81.825561 110.875698,81.0878556 L83.8579986,59.8754845 L89.6774355,39.8931215 C92.8593822,36.5421141 100.083101,43.6379861 101.117432,44.4996034 C101.389535,44.897605 102.122018,46.0375543 103.314904,47.9194854 C104.507789,49.8014166 105.950585,51.9974697 107.643335,54.5077109 C109.336084,57.017952 111.096077,59.703673 112.923366,62.5649544 C114.750654,65.4262359 116.510647,68.1119568 118.203397,70.622198 C119.896146,73.1324391 121.32391,75.2979349 122.48673,77.1187504 L124.7293,80.6303055 C125.998106,82.5890061 126.316724,84.4775659 125.685163,86.2960415 C125.148336,87.8417459 123.893643,89.091509 121.921046,90.0453684 C118.968199,90.8679997 115.699289,91.8623876 112.114217,93.0285619 C108.529145,94.1947362 104.890378,95.36797 101.197808,96.5482986 C97.5052372,97.7286272 93.8743649,98.8791304 90.3050818,99.9998428 C86.7357988,101.120555 83.5206369,102.107866 80.6594998,102.961805 C79.1861014,103.069042 77.9450197,102.95047 76.9362175,102.606087 C75.3771595,102.073858 74.2590309,101.158216 73.5817981,99.859133 C72.9045653,98.56005 72.8185745,97.1831389 73.3238232,95.7283584 C73.8290719,94.2735778 74.8229177,93.0364694 76.3053906,92.0169959 Z M73.1326611,11.2744998 C74.1224126,9.52048542 75.2707762,8.31203545 76.5777864,7.64911362 C77.8847965,6.9861918 79.2070984,6.83103881 80.5447316,7.18364999 C81.7868196,7.51107466 82.8420271,8.24258654 83.7103859,9.37820756 C84.5787446,10.5138286 85.0085685,12.0375573 84.9998706,13.9494395 L56.9666234,116.87602 C56.2822491,119.012772 55.1957132,120.464196 53.7069833,121.230334 C52.2182533,121.996472 50.7573211,122.190639 49.3241426,121.812841 C47.9865094,121.46023 46.8788447,120.639332 46.0011153,119.350121 C45.1233858,118.060911 44.8228217,116.344581 45.0994139,114.20108 L73.1326611,11.2744998 Z"/>
</svg>
